<svg xmlns="http://www.w3.org/2000/svg" viewBox="0 0 1400 620" role="img" aria-labelledby="title desc">
  <title id="title">GoSungrow Power Flow</title>
  <desc id="desc">Solar, battery, load, and grid overview with directional energy flows.</desc>
  <defs>
    <linearGradient id="panel" x1="0%" y1="0%" x2="100%" y2="100%">
      <stop offset="0%" stop-color="#f8fafc" />
      <stop offset="100%" stop-color="#eef2f7" />
    </linearGradient>
    <filter id="shadow" x="-20%" y="-20%" width="140%" height="140%">
      <feDropShadow dx="0" dy="18" stdDeviation="18" flood-color="#0f172a" flood-opacity="0.10" />
    </filter>
  </defs>

  <rect x="14" y="14" width="1372" height="592" rx="36" fill="url(#panel)" />

  <g stroke-linecap="round" stroke="#cbd5e1" stroke-width="16" fill="none">
    <line x1="700" y1="190" x2="700" y2="296" />
    <path d="M 642 182 C 560 218 458 262 318 350" />
    <path d="M 758 182 C 840 218 942 262 1082 350" />
    <line x1="338" y1="408" x2="612" y2="408" />
    <line x1="788" y1="408" x2="1062" y2="408" />
  </g>

  <g fill="#ffffff" filter="url(#shadow)">
    <circle cx="700" cy="132" r="82" />
    <circle cx="250" cy="408" r="88" />
    <circle cx="700" cy="408" r="88" />
    <circle cx="1150" cy="408" r="88" />
  </g>

  <g fill="none" stroke-width="10">
    <circle cx="700" cy="132" r="82" stroke="#f59e0b" />
    <circle cx="250" cy="408" r="88" stroke="#0f766e" />
    <circle cx="700" cy="408" r="88" stroke="#2563eb" />
    <circle cx="1150" cy="408" r="88" stroke="#475569" />
  </g>

  <g fill="#334155" font-family="'Avenir Next', 'Trebuchet MS', sans-serif" text-anchor="middle">
    <text x="700" y="246" font-size="28" font-weight="700">SOLAR</text>
    <text x="250" y="536" font-size="28" font-weight="700">BATTERY</text>
    <text x="700" y="536" font-size="28" font-weight="700">LOAD</text>
    <text x="1150" y="536" font-size="28" font-weight="700">GRID</text>
  </g>

  <g fill="#64748b" font-family="'Avenir Next', 'Trebuchet MS', sans-serif" text-anchor="middle">
    <text x="435" y="216" font-size="18" font-weight="700">PV to Battery</text>
    <text x="700" y="238" font-size="18" font-weight="700">PV to Load</text>
    <text x="965" y="216" font-size="18" font-weight="700">PV to Grid</text>
    <text x="475" y="376" font-size="18" font-weight="700">Battery to Load</text>
    <text x="925" y="376" font-size="18" font-weight="700">Grid to Load</text>
  </g>
</svg>
