<svg xmlns="http://www.w3.org/2000/svg" viewBox="0 0 1600 680" role="img" aria-labelledby="title desc">
  <title id="title">GoSungrow Power Flow</title>
  <desc id="desc">Solar, load, battery, and grid flow overview in a left-to-right layout.</desc>
  <defs>
    <linearGradient id="panel" x1="0%" y1="0%" x2="100%" y2="100%">
      <stop offset="0%" stop-color="#f8fafc" />
      <stop offset="100%" stop-color="#eef2f7" />
    </linearGradient>
    <filter id="shadow" x="-20%" y="-20%" width="140%" height="140%">
      <feDropShadow dx="0" dy="18" stdDeviation="18" flood-color="#0f172a" flood-opacity="0.08" />
    </filter>
  </defs>

  <rect x="18" y="18" width="1564" height="644" rx="36" fill="url(#panel)" />

  <g stroke-linecap="round" stroke="#d7dee8" stroke-width="14" fill="none">
    <line x1="312" y1="340" x2="618" y2="340" />
    <path d="M 308 300 C 470 232 716 188 1142 200" />
    <path d="M 308 380 C 470 448 716 492 1142 480" />
    <path d="M 782 302 C 890 250 998 214 1142 204" />
    <path d="M 782 378 C 890 430 998 466 1142 476" />
  </g>

  <g fill="#ffffff" filter="url(#shadow)">
    <circle cx="230" cy="340" r="82" />
    <circle cx="700" cy="340" r="82" />
    <circle cx="1230" cy="200" r="82" />
    <circle cx="1230" cy="480" r="82" />
  </g>

  <g fill="none" stroke-width="10">
    <circle cx="230" cy="340" r="82" stroke="#f59e0b" />
    <circle cx="700" cy="340" r="82" stroke="#2563eb" />
    <circle cx="1230" cy="200" r="82" stroke="#0f766e" />
    <circle cx="1230" cy="480" r="82" stroke="#475569" />
  </g>

  <g fill="#334155" font-family="'Avenir Next', 'Trebuchet MS', sans-serif" text-anchor="middle">
    <text x="230" y="472" font-size="24" font-weight="700">SOLAR</text>
    <text x="700" y="472" font-size="24" font-weight="700">LOAD</text>
    <text x="1230" y="334" font-size="24" font-weight="700">BATTERY</text>
    <text x="1230" y="614" font-size="24" font-weight="700">GRID</text>
  </g>
</svg>
